{"title":"O Espetacular Homen Aranha HD - MP4","uid":8304896,"size":1857775468,"categoryP":"video","categoryS":"movies","magnet":"?xt=urn:btih:bbefc9767ba12c0fd27d62c910a97b590d61ea5e&amp;dn=O+Espetacular+Homen+Aranha+HD+-+MP4&amp;tr=udp%3A%2F%2Ftracker.openbittorrent.com%3A80&amp;tr=udp%3A%2F%2Fopen.demonii.com%3A1337&amp;tr=udp%3A%2F%2Ftracker.coppersurfer.tk%3A6969&amp;tr=udp%3A%2F%2Fexodus.desync.com%3A6969","seeders":1,"leechers":5,"uploader":"maykonpratta","files":-1,"time":1364343888,"description":"Format                                   : AVI\nFormat/Info                              : Audio Video Interleave\nFormat profile                           : OpenDML\nFile size                                : 1.73 GiB\nDuration                                 : 2h 16mn\nOverall bit rate                         : 1 818 Kbps\nWriting application                      : MEncoder SVN-r30881(20100311-gcc4.3.3)\nWriting library                          : MPlayer\n\nVideo\nID                                       : 0\nFormat                                   : MPEG-4 Visual\nFormat profile                           : Simple@L1\nFormat settings, BVOP                    : No\nFormat settings, QPel                    : No\nFormat settings, GMC                     : No warppoints\nFormat settings, Matrix                  : Default (H.263)\nCodec ID                                 : DX50\nCodec ID/Hint                            : DivX 5\nDuration                                 : 2h 16mn\nBit rate                                 : 1 677 Kbps\nWidth                                    : 640 pixels\nHeight                                   : 480 pixels\nDisplay aspect ratio                     : 16:9\nFrame rate                               : 23.976 fps\nColor space                              : YUV\nChroma subsampling                       : 4:2:0\nBit depth                                : 8 bits\nScan type                                : Progressive\nCompression mode                         : Lossy\nBits/(Pixel*Frame)                       : 0.228\nStream size                              : 1.60 GiB (92%)\nWriting library                          : Lavc52.58.0\n\nAudio\nID                                       : 1\nFormat                                   : MPEG Audio\nFormat version                           : Version 1\nFormat profile                           : Layer 3\nMode                                     : Joint stereo\nMode extension                           : MS Stereo\nCodec ID                                 : 55\nCodec ID/Hint                            : MP3\nDuration                                 : 2h 16mn\nBit rate mode                            : Constant\nBit rate                                 : 128 Kbps\nChannel(s)                               : 2 channels\nSampling rate                            : 44.1 KHz\nCompression mode                         : Lossy\nStream size                              : 125 MiB (7%)\nAlignment                                : Aligned on interleaves\nInterleave, duration                     : 26 ms (0.63 video frame)\nInterleave, preload duration             : 522 ms","torrent":{"xt":"urn:btih:bbefc9767ba12c0fd27d62c910a97b590d61ea5e","amp;dn":"O+Espetacular+Homen+Aranha+HD+-+MP4","amp;tr":["udp%3A%2F%2Ftracker.openbittorrent.com%3A80","udp%3A%2F%2Fopen.demonii.com%3A1337","udp%3A%2F%2Ftracker.coppersurfer.tk%3A6969","udp%3A%2F%2Fexodus.desync.com%3A6969"],"infoHash":"bbefc9767ba12c0fd27d62c910a97b590d61ea5e","infoHashBuffer":{"type":"Buffer","data":[187,239,201,118,123,161,44,15,210,125,98,201,16,169,123,89,13,97,234,94]},"announce":[],"urlList":[]}}